<?xml version="1.0" standalone="no"?>
<!DOCTYPE svg PUBLIC "-//W3C//DTD SVG 1.1//EN" "http://www.w3.org/Graphics/SVG/1.1/DTD/svg11.dtd" >
<svg>
<metadata>
Created by FontForge 20090622 at Mon Jan 11 14:41:14 2016
 By deploy user
Copyright (c) 2003 The Hoefler Type Foundry, Inc., dba Hoefler &#38; Frere-Jones. All Rights Reserved.
</metadata>
<defs>
<font id="GothamPro-Black" horiz-adv-x="1024" >
  <font-face 
    font-family="Gotham Pro Black"
    font-weight="400"
    font-stretch="normal"
    units-per-em="2048"
    panose-1="2 0 9 3 4 0 0 2 0 4"
    ascent="1638"
    descent="-410"
    x-height="1108"
    cap-height="1434"
    bbox="-86 -354 2296 1909"
    underline-thickness="40"
    underline-position="-231"
    unicode-range="U+000D-U+E000"
  />
<missing-glyph horiz-adv-x="748" 
d="M68 0v1365h544v-1365h-544zM136 68h408v1229h-408v-1229z" />
    <glyph glyph-name=".notdef" horiz-adv-x="748" 
d="M68 0v1365h544v-1365h-544zM136 68h408v1229h-408v-1229z" />
    <glyph glyph-name="glyph1" horiz-adv-x="2048" 
 />
    <glyph glyph-name="glyph1" horiz-adv-x="2048" 
 />
    <glyph glyph-name="uni000D" unicode="&#xd;" horiz-adv-x="2048" 
 />
    <glyph glyph-name="space" unicode=" " horiz-adv-x="567" 
 />
    <glyph glyph-name="exclam" unicode="!" horiz-adv-x="663" 
d="M111 1260v174h442v-174l-119 -793h-205zM129 0v348h406v-348h-406z" />
    <glyph glyph-name="quotedbl" unicode="&#x22;" horiz-adv-x="1099" 
d="M70 698l45 736h417v-11l-260 -725h-202zM594 698l47 736h418v-11l-260 -725h-205z" />
    <glyph glyph-name="numbersign" unicode="#" horiz-adv-x="1445" 
d="M59 276v330h217l39 230h-188v329h246l45 269h297l-47 -269h260l45 269h297l-45 -269h159v-329h-217l-39 -230h189v-330h-244l-49 -276h-297l49 276h-260l-47 -276h-297l47 276h-160zM563 598h275l41 246h-273z" />
    <glyph glyph-name="dollar" unicode="$" horiz-adv-x="1363" 
d="M51 207l185 272q199 -139 380 -168v246q-129 30 -218 66t-153.5 89t-95 124.5t-30.5 167.5q0 184 128.5 299.5t360.5 132.5v116h213v-122q235 -25 432 -160l-168 -275q-120 85 -274 123v-237q254 -59 371.5 -161.5t117.5 -289.5q0 -184 -130.5 -296.5t-352.5 -133.5v-201
h-213v205q-151 15 -294.5 67.5t-258.5 135.5zM479 1030q0 -41 29 -67t110 -48v222q-139 -11 -139 -107zM809 299q137 15 137 109q0 42 -29.5 67.5t-107.5 48.5v-225z" />
    <glyph glyph-name="percent" unicode="%" horiz-adv-x="1841" 
d="M72 1069q0 162 102.5 273.5t267.5 111.5q164 0 266.5 -112t102.5 -275q0 -162 -104 -273.5t-267 -111.5t-265.5 111.5t-102.5 275.5zM229 0l1106 1434h277l-1106 -1434h-277zM322 1067q0 -69 34.5 -114.5t85.5 -45.5q52 0 85.5 45.5t33.5 116.5q0 68 -34.5 114t-86.5 46
q-53 0 -85.5 -45.5t-32.5 -116.5zM1030 367q0 162 103 273.5t268 111.5q164 0 266 -111t102 -276q0 -160 -104 -272.5t-266 -112.5q-163 0 -266 112t-103 275zM1280 365q0 -67 35 -113.5t86 -46.5q52 0 85.5 45.5t33.5 116.5q0 69 -34 114t-87 45q-55 0 -87 -44t-32 -117z
" />
    <glyph glyph-name="ampersand" unicode="&#x26;" horiz-adv-x="1429" 
d="M43 393q0 271 291 402q-94 134 -94 278q0 163 123 276t327 113q192 0 309 -105t117 -267q0 -243 -280 -373l159 -156q66 96 135 227l263 -131q-96 -177 -189 -303l193 -190l-269 -193l-147 150q-192 -146 -426 -146q-225 0 -368.5 112t-143.5 306zM440 410
q0 -63 47 -102.5t121 -39.5q78 0 170 62l-235 239q-103 -62 -103 -159zM575 1059q0 -72 74 -164q78 34 115 77.5t37 102.5q0 52 -30.5 83.5t-80.5 31.5q-51 0 -83 -35.5t-32 -95.5z" />
    <glyph glyph-name="quotesingle" unicode="'" horiz-adv-x="581" 
d="M70 698l45 736h426v-11l-260 -725h-211z" />
    <glyph glyph-name="parenleft" unicode="(" horiz-adv-x="911" 
d="M90 588q0 154 39 283.5t117 236t186 193t256 163.5l162 -241q-200 -138 -289.5 -286.5t-89.5 -348.5t89.5 -348.5t289.5 -286.5l-162 -242q-147 77 -255.5 164t-186.5 193.5t-117 236t-39 283.5z" />
    <glyph glyph-name="parenright" unicode=")" horiz-adv-x="911" 
d="M61 -47q200 138 289.5 286.5t89.5 348.5t-89.5 348.5t-289.5 286.5l162 241q148 -77 256 -163.5t186 -193t117 -236t39 -283.5t-39 -283.5t-117 -236t-186.5 -193.5t-255.5 -164z" />
    <glyph glyph-name="asterisk" unicode="*" horiz-adv-x="870" 
d="M57 973l260 92l-260 92l111 191l211 -181l-51 271h215l-51 -271l210 181l111 -191l-260 -92l260 -92l-111 -189l-210 181l51 -271h-215l51 271l-211 -181z" />
    <glyph glyph-name="plus" unicode="+" horiz-adv-x="1310" 
d="M131 549v344h346v352h357v-352h346v-344h-346v-352h-357v352h-346z" />
    <glyph glyph-name="comma" unicode="," horiz-adv-x="581" 
d="M41 -188q100 12 152.5 59t52.5 125v8h-158v399h406v-325q0 -217 -109 -313.5t-313 -102.5z" />
    <glyph glyph-name="hyphen" unicode="-" horiz-adv-x="835" 
d="M82 469v342h672v-342h-672z" />
    <glyph glyph-name="period" unicode="." horiz-adv-x="581" 
d="M88 0v399h406v-399h-406z" />
    <glyph glyph-name="slash" unicode="/" horiz-adv-x="1095" 
d="M-78 -262l907 1896h316l-907 -1896h-316z" />
    <glyph glyph-name="zero" unicode="0" horiz-adv-x="1495" 
d="M84 717q0 152 47.5 287.5t132 237t211 161t275.5 59.5t274.5 -59t209.5 -160t130.5 -236.5t46.5 -289.5q0 -152 -47 -288t-131.5 -237.5t-211 -161t-276.5 -59.5q-199 0 -351.5 101.5t-231 270t-78.5 374.5zM483 717q0 -173 74 -283t193 -110t190.5 109t71.5 284
q0 171 -74.5 282t-192.5 111t-190 -109t-72 -284z" />
    <glyph glyph-name="one" unicode="1" horiz-adv-x="864" 
d="M16 1325l420 119h289v-1444h-391v1073l-242 -55z" />
    <glyph glyph-name="two" unicode="2" horiz-adv-x="1277" 
d="M68 0v299l536 410q101 76 142.5 134.5t41.5 123.5q0 67 -43.5 106t-115.5 39q-70 0 -134 -42t-151 -142l-268 223q123 160 253.5 233.5t329.5 73.5q235 0 382 -128t147 -333q0 -84 -20.5 -152.5t-66 -128t-101.5 -109t-144 -111.5l-246 -172h592v-324h-1134z" />
    <glyph glyph-name="three" unicode="3" horiz-adv-x="1271" 
d="M37 225l250 250q161 -164 342 -164q85 0 134.5 40.5t49.5 109.5t-60.5 108t-172.5 39h-168l-58 207l330 297h-549v322h1036v-285l-342 -293q81 -18 145 -48.5t116.5 -78.5t81 -119t28.5 -161q0 -216 -155.5 -347t-397.5 -131q-381 0 -610 254z" />
    <glyph glyph-name="four" unicode="4" horiz-adv-x="1411" 
d="M27 559l743 885h401v-869h183v-296h-183v-279h-385v279h-694zM444 573h342v412z" />
    <glyph glyph-name="five" unicode="5" horiz-adv-x="1290" 
d="M39 199l227 266q186 -156 348 -156q98 0 154.5 46t56.5 126q0 76 -58 121t-153 45q-110 0 -229 -72l-235 132l40 727h959v-328h-645l-12 -217q109 51 229 51q79 0 150.5 -17t134 -54t108 -90t72 -129.5t26.5 -168.5q0 -236 -163 -373t-428 -137q-182 0 -322 58.5
t-260 169.5z" />
    <glyph glyph-name="six" unicode="6" horiz-adv-x="1355" 
d="M84 676q0 169 41.5 311t122.5 249t209.5 166.5t292.5 59.5q146 0 258 -38.5t219 -118.5l-187 -281q-73 55 -138 82t-146 27q-121 0 -189 -82t-82 -224q69 52 141.5 81.5t168.5 29.5q95 0 180 -30t150.5 -86t104 -142.5t38.5 -192.5q0 -156 -77.5 -275t-206 -180
t-286.5 -61q-274 0 -438 164q-176 176 -176 541zM479 467q0 -80 55.5 -133t147.5 -53t145.5 52.5t53.5 135.5q0 79 -55.5 131.5t-147.5 52.5t-145.5 -52.5t-53.5 -133.5z" />
    <glyph glyph-name="seven" unicode="7" horiz-adv-x="1257" 
d="M94 1100v334h1104v-299l-633 -1135h-438l631 1100h-664z" />
    <glyph glyph-name="eight" unicode="8" horiz-adv-x="1290" 
d="M55 399q0 239 246 344q-197 108 -197 316q0 173 151 286t390 113q240 0 390.5 -113.5t150.5 -289.5q0 -204 -197 -312q119 -56 182.5 -137t63.5 -209q0 -190 -165 -306t-425 -116t-425 117.5t-165 306.5zM438 434q0 -68 55.5 -115t151.5 -47t151.5 47.5t55.5 118.5
q0 69 -58 112.5t-149 43.5t-149 -44t-58 -116zM469 1010q0 -68 49 -113t127 -45q79 0 127.5 44.5t48.5 115.5q0 62 -48.5 106.5t-127.5 44.5q-80 0 -128 -44t-48 -109z" />
    <glyph glyph-name="nine" unicode="9" horiz-adv-x="1355" 
d="M88 940q0 156 74.5 275.5t204 183t292.5 63.5q151 0 253 -41t188 -127q172 -169 172 -534q0 -236 -75.5 -412.5t-226.5 -276.5t-362 -100q-281 0 -499 170l186 275q144 -115 307 -115q120 0 188 78.5t82 220.5q-124 -117 -303 -117q-213 0 -347 123.5t-134 333.5z
M473 956q0 -83 56 -135.5t149 -52.5q92 0 146.5 53.5t54.5 136.5q0 85 -56.5 140t-148.5 55t-146.5 -54.5t-54.5 -142.5z" />
    <glyph glyph-name="colon" unicode=":" horiz-adv-x="602" 
d="M98 0v399h406v-399h-406zM98 709v399h406v-399h-406z" />
    <glyph glyph-name="semicolon" unicode=";" horiz-adv-x="602" 
d="M51 -193q100 12 152.5 59.5t52.5 125.5v8h-158v399h406v-325q0 -217 -109 -313.5t-313 -102.5zM98 709v399h406v-399h-406z" />
    <glyph glyph-name="less" unicode="&#x3c;" horiz-adv-x="1310" 
d="M133 539v362l1018 406v-363l-670 -223l670 -223v-365z" />
    <glyph glyph-name="equal" unicode="=" horiz-adv-x="1310" 
d="M152 274v342h1005v-342h-1005zM152 825v342h1005v-342h-1005z" />
    <glyph glyph-name="greater" unicode="&#x3e;" horiz-adv-x="1310" 
d="M160 133v363l669 223l-669 223v365l1018 -406v-362z" />
    <glyph glyph-name="question" unicode="?" horiz-adv-x="1105" 
d="M20 1241q215 215 531 215q229 0 370.5 -117t141.5 -317q0 -94 -29.5 -166.5t-85.5 -122t-125 -81.5t-159 -54l-25 -131h-248l-51 342l16 18q173 15 247.5 55.5t74.5 110.5q0 53 -40.5 83t-113.5 30q-148 0 -299 -135zM307 0v348h404v-348h-404z" />
    <glyph glyph-name="at" unicode="@" horiz-adv-x="1976" 
d="M92 563q0 183 70 348.5t189.5 286.5t288.5 192.5t359 71.5q186 0 351.5 -65.5t281 -174.5t183 -254.5t67.5 -301.5q0 -134 -36.5 -241.5t-98 -173t-139 -100t-162.5 -34.5q-226 0 -316 155q-131 -151 -301 -151q-162 0 -268 113t-106 298q0 144 61.5 267t166 194.5
t224.5 71.5q179 0 275 -152l24 125l318 -49l-94 -528q-9 -46 -9 -90q0 -53 36 -87t97 -34q104 0 173 109.5t69 306.5q0 141 -59.5 271t-163 228t-253.5 156.5t-321 58.5q-175 0 -329 -64.5t-261 -174t-169 -260t-62 -318.5q0 -170 61.5 -319.5t169.5 -258.5t263 -172
t334 -63q147 0 264 33.5t237 103.5l41 -65q-253 -154 -542 -154q-156 0 -297.5 45t-253 127.5t-193.5 193t-126 246.5t-44 283zM782 557q0 -75 42 -117.5t108 -42.5q82 0 139 69t57 167q0 71 -41.5 113t-107.5 42q-83 0 -140 -67t-57 -164z" />
    <glyph glyph-name="A" unicode="A" horiz-adv-x="1628" 
d="M12 0l611 1444h383l610 -1444h-426l-105 256h-553l-102 -256h-418zM649 565h322l-160 408z" />
    <glyph glyph-name="B" unicode="B" horiz-adv-x="1464" 
d="M127 0v1434h735q262 0 391 -129q93 -93 93 -236q0 -223 -222 -319q139 -46 212 -129.5t73 -225.5q0 -185 -143.5 -290t-399.5 -105h-739zM514 319h307q91 0 141 35t50 101q0 60 -49 94.5t-146 34.5h-303v-265zM514 862h250q188 0 188 129q0 59 -46 91t-134 32h-258v-252z
" />
    <glyph glyph-name="C" unicode="C" horiz-adv-x="1495" 
d="M78 717q0 155 57.5 292.5t157 237t240.5 157.5t301 58q383 0 602 -303l-291 -225q-133 166 -316 166q-149 0 -245.5 -110.5t-96.5 -272.5q0 -163 96.5 -273t245.5 -110q105 0 178.5 43.5t145.5 130.5l299 -213q-73 -100 -154.5 -168t-205 -112t-275.5 -44
q-203 0 -372 95.5t-268 267t-99 383.5z" />
    <glyph glyph-name="D" unicode="D" horiz-adv-x="1566" 
d="M127 0v1434h553q189 0 342 -52.5t255 -147t157 -225.5t55 -288q0 -155 -55.5 -287t-158.5 -228.5t-258 -151t-345 -54.5h-545zM524 352h162q181 0 288 96.5t107 270.5q0 170 -107.5 268t-287.5 98h-162v-733z" />
    <glyph glyph-name="E" unicode="E" horiz-adv-x="1366" 
d="M127 0v1434h1153v-338h-760v-217h688v-314h-688v-227h770v-338h-1163z" />
    <glyph glyph-name="F" unicode="F" horiz-adv-x="1327" 
d="M127 0v1434h1147v-349h-750v-243h678v-330h-678v-512h-397z" />
    <glyph glyph-name="G" unicode="G" horiz-adv-x="1574" 
d="M78 717q0 155 58.5 292.5t160.5 237t245.5 157.5t307.5 58q182 0 322 -53t260 -156l-234 -280q-80 68 -162 101.5t-184 33.5q-155 0 -261 -115t-106 -282q0 -173 109.5 -285.5t279.5 -112.5q139 0 230 60v174h-283v291h660v-645q-270 -222 -623 -222q-221 0 -399 94.5
t-279.5 265.5t-101.5 386z" />
    <glyph glyph-name="H" unicode="H" horiz-adv-x="1558" 
d="M127 0v1434h397v-537h510v537h398v-1434h-398v545h-510v-545h-397z" />
    <glyph glyph-name="I" unicode="I" horiz-adv-x="669" 
d="M135 0v1434h400v-1434h-400z" />
    <glyph glyph-name="J" unicode="J" horiz-adv-x="1155" 
d="M8 217l256 242q56 -67 108 -100t115 -33q77 0 120.5 51t43.5 149v908h396v-910q0 -261 -142 -403q-146 -146 -393 -146q-327 0 -504 242z" />
    <glyph glyph-name="K" unicode="K" horiz-adv-x="1495" 
d="M127 0v1434h397v-582l494 582h471l-543 -617l561 -817h-477l-360 532l-146 -161v-371h-397z" />
    <glyph glyph-name="L" unicode="L" horiz-adv-x="1261" 
d="M127 0v1434h397v-1086h695v-348h-1092z" />
    <glyph glyph-name="M" unicode="M" horiz-adv-x="1777" 
d="M127 0v1434h420l342 -555l342 555h420v-1434h-396v823l-366 -561h-8l-365 557v-819h-389z" />
    <glyph glyph-name="N" unicode="N" horiz-adv-x="1607" 
d="M127 0v1434h371l589 -758v758h394v-1434h-348l-613 786v-786h-393z" />
    <glyph glyph-name="O" unicode="O" horiz-adv-x="1701" 
d="M78 717q0 152 59.5 289.5t161.5 237.5t246 159t307 59t306.5 -58.5t245 -158t160 -237t58.5 -291.5q0 -152 -59.5 -290t-161.5 -238t-246 -159t-307 -59q-217 0 -394 99.5t-276.5 270t-99.5 376.5zM485 717q0 -159 104 -273t263 -114q161 0 263 112.5t102 274.5
q0 159 -104 273t-265 114q-159 0 -261 -112.5t-102 -274.5z" />
    <glyph glyph-name="P" unicode="P" horiz-adv-x="1378" 
d="M127 0v1434h614q274 0 435 -134.5t161 -373.5q0 -165 -80.5 -283t-218 -175.5t-317.5 -57.5h-197v-410h-397zM524 721h189q106 0 166.5 51t60.5 139q0 91 -60.5 140t-168.5 49h-187v-379z" />
    <glyph glyph-name="Q" unicode="Q" horiz-adv-x="1701" 
d="M78 717q0 152 59.5 289.5t161.5 237.5t246 159t307 59t306.5 -58.5t245 -158t160 -237t58.5 -291.5q0 -231 -127 -412l147 -125l-200 -223l-158 141q-195 -127 -436 -127q-217 0 -394 99.5t-276.5 270t-99.5 376.5zM485 713q0 -160 103.5 -274.5t263.5 -114.5
q75 0 145 26l-198 170l200 225l195 -176q25 67 25 144q0 161 -104.5 276t-266.5 115q-159 0 -261 -114.5t-102 -276.5z" />
    <glyph glyph-name="R" unicode="R" horiz-adv-x="1472" 
d="M127 0v1434h678q313 0 467 -154q127 -127 127 -340q0 -159 -78 -270t-217 -170l342 -500h-459l-289 434h-174v-434h-397zM524 745h262q101 0 157 46.5t56 128.5q0 83 -56.5 126.5t-158.5 43.5h-260v-345z" />
    <glyph glyph-name="S" unicode="S" horiz-adv-x="1335" 
d="M18 213l222 264q215 -172 465 -172q79 0 121 26.5t42 76.5q0 46 -49.5 75t-191.5 62q-73 17 -126.5 31.5t-113.5 36.5t-102 46t-82 58t-64 73.5t-38.5 92.5t-14.5 116q0 203 150.5 331t404.5 128q353 0 590 -190l-199 -281q-201 141 -401 141q-70 0 -107 -26.5t-37 -69.5
q0 -50 49.5 -77.5t198.5 -61.5q132 -29 224 -63.5t165.5 -86.5t109.5 -126.5t36 -174.5q0 -217 -158 -342t-422 -125q-194 0 -368 60.5t-304 177.5z" />
    <glyph glyph-name="T" unicode="T" horiz-adv-x="1351" 
d="M47 1085v349h1258v-349h-431v-1085h-397v1085h-430z" />
    <glyph glyph-name="U" unicode="U" horiz-adv-x="1552" 
d="M109 629v805h403v-797q0 -151 70 -228t194 -77t194 74t70 221v807h404v-795q0 -171 -47 -299t-136 -208t-211.5 -119.5t-277.5 -39.5q-315 0 -489 163.5t-174 492.5z" />
    <glyph glyph-name="V" unicode="V" horiz-adv-x="1556" 
d="M12 1434h445l325 -908l326 908h436l-581 -1444h-369z" />
    <glyph glyph-name="W" unicode="W" horiz-adv-x="2287" 
d="M31 1434h420l249 -830l277 834h342l276 -834l250 830h412l-479 -1444h-346l-289 825l-287 -825h-346z" />
    <glyph glyph-name="X" unicode="X" horiz-adv-x="1499" 
d="M23 0l491 729l-471 705h457l254 -404l256 404h446l-471 -701l492 -733h-457l-275 432l-276 -432h-446z" />
    <glyph glyph-name="Y" unicode="Y" horiz-adv-x="1480" 
d="M-4 1434h453l294 -523l297 523h445l-545 -891v-543h-399v537z" />
    <glyph glyph-name="Z" unicode="Z" horiz-adv-x="1429" 
d="M82 0v289l719 809h-695v336h1244v-289l-719 -809h719v-336h-1268z" />
    <glyph glyph-name="bracketleft" unicode="[" horiz-adv-x="935" 
d="M135 -266v1700h709v-265h-361v-1171h361v-264h-709z" />
    <glyph glyph-name="backslash" unicode="\" horiz-adv-x="1095" 
d="M-49 1634h315l908 -1896h-316z" />
    <glyph glyph-name="bracketright" unicode="]" horiz-adv-x="935" 
d="M92 -2h361v1171h-361v265h709v-1700h-709v264z" />
    <glyph glyph-name="asciicircum" unicode="^" 
d="M86 1010l295 422h262l295 -422h-272l-156 198l-156 -198h-268z" />
    <glyph glyph-name="underscore" unicode="_" horiz-adv-x="1228" 
d="M-4 -90h1237v-238h-1237v238z" />
    <glyph glyph-name="grave" unicode="`" 
d="M180 1464l363 117l213 -379h-275z" />
    <glyph glyph-name="a" unicode="a" horiz-adv-x="1226" 
d="M49 322q0 168 117 258t317 90q149 0 267 -43v18q0 180 -222 180q-152 0 -305 -61l-80 274q211 86 449 86q287 0 422 -135q119 -116 119 -352v-637h-385v115q-127 -140 -326 -140q-164 0 -268.5 91.5t-104.5 255.5zM424 340q0 -56 38 -88.5t99 -32.5q86 0 139.5 50
t53.5 132v52q-68 28 -152 28t-131 -38t-47 -103z" />
    <glyph glyph-name="b" unicode="b" horiz-adv-x="1384" 
d="M104 0v1495h390v-534q67 81 144 126.5t191 45.5q99 0 188 -40.5t157 -113.5t107.5 -183t39.5 -241t-39.5 -241.5t-107 -184t-156.5 -114t-187 -40.5q-115 0 -194.5 43t-142.5 117v-135h-390zM485 553q0 -109 65.5 -180.5t160.5 -71.5q97 0 162 71t65 185q0 108 -65.5 179
t-161.5 71q-95 0 -160.5 -71.5t-65.5 -182.5z" />
    <glyph glyph-name="c" unicode="c" horiz-adv-x="1165" 
d="M59 553q0 156 74.5 287.5t211.5 210.5t308 79q318 0 473 -247l-260 -189q-78 109 -200 109q-103 0 -165.5 -71.5t-62.5 -178.5q0 -108 62 -180t159 -72q65 0 112 28.5t97 88.5l265 -191q-170 -254 -494 -254q-163 0 -297 78.5t-208.5 211.5t-74.5 290z" />
    <glyph glyph-name="d" unicode="d" horiz-adv-x="1384" 
d="M63 553q0 131 39.5 241.5t106.5 184t155.5 114t186.5 40.5q115 0 195 -43t145 -117v522h389v-1495h-389v147q-67 -81 -145.5 -126.5t-192.5 -45.5q-98 0 -187 40.5t-156.5 113.5t-107 183t-39.5 241zM444 553q0 -109 66.5 -180.5t161.5 -71.5t160 72t65 184
q0 108 -65 179t-160 71q-96 0 -162 -71t-66 -183z" />
    <glyph glyph-name="e" unicode="e" horiz-adv-x="1239" 
d="M59 553q0 120 41.5 227t114.5 184.5t177.5 123t225.5 45.5q139 0 248 -48.5t176 -133t101.5 -192.5t34.5 -233q0 -53 -2 -80h-742q23 -89 85.5 -135.5t154.5 -46.5q130 0 246 113l215 -178q-177 -226 -482 -226q-173 0 -308 72t-210.5 204t-75.5 304zM428 645h385
q-11 93 -62 147t-130 54q-75 0 -126.5 -54.5t-66.5 -146.5z" />
    <glyph glyph-name="f" unicode="f" horiz-adv-x="827" 
d="M45 797v305h129v24q0 193 94 287q96 96 289 96q152 0 254 -30v-275q-74 23 -145 23q-111 0 -111 -105v-26h254v-299h-248v-797h-387v797h-129z" />
    <glyph glyph-name="g" unicode="g" horiz-adv-x="1384" 
d="M63 616q0 116 39 214.5t105 164t153 102t183 36.5q115 0 195.5 -40.5t152.5 -115.5v131h389v-842q0 -299 -143 -442q-156 -156 -488 -156q-307 0 -555 127l125 258q188 -104 387 -104q145 0 218 69.5t73 202.5v43q-67 -77 -148.5 -121.5t-193.5 -44.5q-210 0 -351 141.5
t-141 376.5zM444 610q0 -92 64 -152.5t164 -60.5q98 0 161.5 62t63.5 157q0 92 -63.5 152.5t-161.5 60.5q-100 0 -164 -62t-64 -157z" />
    <glyph glyph-name="h" unicode="h" horiz-adv-x="1298" 
d="M104 0v1495h390v-539q139 177 331 177q176 0 276.5 -109t100.5 -299v-725h-389v600q0 89 -42.5 137.5t-113.5 48.5q-73 0 -118 -49t-45 -137v-600h-390z" />
    <glyph glyph-name="i" unicode="i" horiz-adv-x="614" 
d="M104 1208v287h406v-287h-406zM113 0v1108h389v-1108h-389z" />
    <glyph glyph-name="j" unicode="j" horiz-adv-x="618" 
d="M-53 -61q16 -2 51 -2q59 0 87 29.5t28 99.5v1042h389v-1059q0 -204 -99.5 -293.5t-296.5 -89.5q-42 0 -159 15v258zM104 1208v287h406v-287h-406z" />
    <glyph glyph-name="k" unicode="k" horiz-adv-x="1234" 
d="M104 0v1495h390v-758l301 371h440l-385 -444l395 -664h-428l-223 377l-100 -117v-260h-390z" />
    <glyph glyph-name="l" unicode="l" horiz-adv-x="614" 
d="M113 0v1495h389v-1495h-389z" />
    <glyph glyph-name="m" unicode="m" horiz-adv-x="1988" 
d="M104 0v1108h390v-152q139 177 329 177q110 0 193 -47t127 -134q77 89 165.5 135t204.5 46q178 0 278.5 -106.5t100.5 -299.5v-727h-389v602q0 89 -40.5 136.5t-110.5 47.5q-71 0 -115.5 -48t-44.5 -136v-602h-389v602q0 89 -41 136.5t-111 47.5q-71 0 -114 -48t-43 -136
v-602h-390z" />
    <glyph glyph-name="n" unicode="n" horiz-adv-x="1298" 
d="M104 0v1108h390v-156q142 181 331 181q176 0 276.5 -109t100.5 -299v-725h-389v600q0 89 -42.5 137.5t-113.5 48.5q-73 0 -118 -49t-45 -137v-600h-390z" />
    <glyph glyph-name="o" unicode="o" horiz-adv-x="1343" 
d="M59 553q0 117 46.5 223.5t127 185t195.5 125t246 46.5q173 0 313.5 -78t218.5 -211t78 -291q0 -117 -46.5 -223.5t-126.5 -185t-195 -125t-246 -46.5q-130 0 -244.5 46t-194.5 124t-126 185t-46 225zM438 553q0 -103 67.5 -176.5t168.5 -73.5q103 0 167 72t64 178
q0 103 -67 176.5t-168 73.5q-103 0 -167.5 -72.5t-64.5 -177.5z" />
    <glyph glyph-name="p" unicode="p" horiz-adv-x="1384" 
d="M104 -328v1436h390v-147q67 81 144 126.5t191 45.5q99 0 188 -40.5t157 -113.5t107.5 -183t39.5 -241t-39.5 -241.5t-107 -184t-156.5 -114t-187 -40.5q-115 0 -194.5 43t-142.5 117v-463h-390zM485 553q0 -109 65.5 -180.5t160.5 -71.5q97 0 162 71t65 185
q0 108 -65.5 179t-161.5 71q-95 0 -160.5 -71.5t-65.5 -182.5z" />
    <glyph glyph-name="q" unicode="q" horiz-adv-x="1384" 
d="M63 553q0 131 39.5 241.5t106.5 184t155.5 114t186.5 40.5q115 0 195 -43t145 -117v135h389v-1436h-389v475q-67 -81 -145.5 -126.5t-192.5 -45.5q-98 0 -187 40.5t-156.5 113.5t-107 183t-39.5 241zM444 553q0 -109 66.5 -180.5t161.5 -71.5t160 72t65 184
q0 108 -65 179t-160 71q-96 0 -162 -71t-66 -183z" />
    <glyph glyph-name="r" unicode="r" horiz-adv-x="876" 
d="M104 0v1108h390v-223q100 241 330 241h20v-409h-33q-317 0 -317 -373v-344h-390z" />
    <glyph glyph-name="s" unicode="s" horiz-adv-x="1052" 
d="M20 139l146 236q192 -127 381 -127q98 0 98 63q0 30 -40 49.5t-138 45.5q-74 20 -126 38t-106 48t-86.5 65t-53.5 88t-21 119q0 173 123 269.5t321 96.5q122 0 242 -34t215 -95l-133 -245q-86 47 -174 74.5t-154 27.5q-44 0 -67 -15t-23 -42q0 -30 39.5 -49.5
t140.5 -49.5q74 -21 126 -40t106 -49t86.5 -65t53.5 -86.5t21 -115.5q0 -179 -122 -275t-330 -96q-297 0 -525 164z" />
    <glyph glyph-name="t" unicode="t" horiz-adv-x="882" 
d="M41 795v313h131v281h389v-281h258v-313h-258v-375q0 -58 26 -84.5t81 -26.5q71 0 147 37v-305q-115 -64 -270 -64q-182 0 -277.5 87.5t-95.5 279.5v451h-131z" />
    <glyph glyph-name="u" unicode="u" horiz-adv-x="1298" 
d="M96 383v725h389v-600q0 -89 43 -137.5t115 -48.5q71 0 116.5 49t45.5 137v600h389v-1108h-389v152q-139 -177 -332 -177q-176 0 -276.5 109t-100.5 299z" />
    <glyph glyph-name="v" unicode="v" horiz-adv-x="1280" 
d="M20 1108h410l213 -647l213 647h404l-443 -1116h-354z" />
    <glyph glyph-name="w" unicode="w" horiz-adv-x="1763" 
d="M25 1108h381l145 -557l170 561h321l172 -565l150 561h375l-342 -1116h-336l-180 575l-185 -575h-334z" />
    <glyph glyph-name="x" unicode="x" horiz-adv-x="1206" 
d="M16 0l373 559l-366 549h419l164 -272l164 272h412l-365 -547l373 -561h-418l-172 285l-174 -285h-410z" />
    <glyph glyph-name="y" unicode="y" horiz-adv-x="1282" 
d="M23 1108h407l221 -668l209 668h400l-406 -1081q-73 -197 -166 -279t-256 -82q-184 0 -356 96l121 273q99 -60 170 -60q58 0 90 45z" />
    <glyph glyph-name="z" unicode="z" horiz-adv-x="1153" 
d="M66 0v256l512 543h-494v309h1010v-256l-514 -543h514v-309h-1028z" />
    <glyph glyph-name="braceleft" unicode="{" horiz-adv-x="1003" 
d="M70 459v258h32q126 0 184 44t58 157q0 18 -3 77t-3 74q0 116 49.5 192.5t169 127.5t322.5 75l59 -227q-109 -24 -164 -54.5t-72.5 -69.5t-17.5 -107q0 -16 3 -69t3 -75q0 -110 -57 -176.5t-172 -97.5q115 -31 172 -98t57 -177q0 -23 -3 -75t-3 -68q0 -68 17.5 -107
t72.5 -69.5t164 -54.5l-59 -228q-203 24 -322.5 75t-169 127.5t-49.5 192.5q0 15 3 74.5t3 77.5q0 113 -58 157t-184 44h-32z" />
    <glyph glyph-name="bar" unicode="|" horiz-adv-x="727" 
d="M215 -262v1896h297v-1896h-297z" />
    <glyph glyph-name="braceright" unicode="}" horiz-adv-x="1003" 
d="M66 -61q82 18 132 38t77 49t35.5 61t8.5 83q0 16 -3 68t-3 75q0 110 57.5 177t172.5 98q-115 31 -172.5 97.5t-57.5 176.5q0 22 3 75t3 69q0 51 -8.5 83t-35.5 61t-77 49t-132 38l59 227q203 -24 322.5 -75t169 -127.5t49.5 -192.5q0 -15 -3.5 -74t-3.5 -77
q0 -113 58 -157t184 -44h33v-258h-33q-126 0 -184 -44t-58 -157q0 -18 3.5 -77.5t3.5 -74.5q0 -116 -49.5 -192.5t-169 -127.5t-322.5 -75z" />
    <glyph glyph-name="asciitilde" unicode="~" horiz-adv-x="1034" 
d="M84 502q35 157 94 231t160 74q69 0 181 -40t138 -40q40 0 61.5 21t43.5 73l188 -51q-35 -157 -94 -231t-160 -74q-68 0 -181 40t-140 40q-40 0 -60.5 -21t-42.5 -73z" />
    <glyph glyph-name="uni00A0" unicode="&#xa0;" horiz-adv-x="567" 
 />
    <glyph glyph-name="cent" unicode="&#xa2;" horiz-adv-x="1177" 
d="M66 727q0 159 72 288.5t205 206.5t304 81l25 143h235l-30 -178q165 -61 258 -199l-238 -182q-46 56 -96 82l-94 -516q108 14 194 116l236 -172q-161 -235 -459 -243l-29 -166h-235l35 200q-172 59 -277.5 205.5t-105.5 333.5zM403 727q0 -82 30 -144t85 -96l92 519
q-92 -13 -149.5 -93t-57.5 -186z" />
    <glyph glyph-name="sterling" unicode="&#xa3;" horiz-adv-x="1308" 
d="M90 0v236l154 59v244h-154v278h154v105q0 254 141 395t391 141q293 0 477 -207l-241 -264q-96 117 -209 117q-76 0 -120 -48.5t-44 -133.5v-105h442v-278h-442v-226h600v-313h-1149z" />
    <glyph glyph-name="yen" unicode="&#xa5;" horiz-adv-x="1449" 
d="M8 1434h451l270 -471l270 471h443l-428 -650h284v-245h-376v-103h376v-246h-376v-190h-394v190h-376v246h376v103h-376v245h282z" />
    <glyph glyph-name="dieresis" unicode="&#xa8;" 
d="M119 1202v293h338v-293h-338zM567 1202v293h338v-293h-338z" />
    <glyph glyph-name="copyright" unicode="&#xa9;" horiz-adv-x="1699" 
d="M109 717q0 149 58 286t157 238t237 161t291 60t290.5 -59.5t235.5 -159.5t155.5 -237.5t57.5 -288.5q0 -149 -58 -286.5t-157 -238t-237 -161t-291 -60.5t-290.5 59.5t-235.5 160t-155.5 238t-57.5 288.5zM195 713q0 -134 50 -255.5t136 -210.5t208 -141.5t259 -52.5
q138 0 260.5 53t209 143t137 213t50.5 259q0 179 -84.5 330t-235 240t-333.5 89q-138 0 -260.5 -53t-209 -142.5t-137 -212.5t-50.5 -259zM449 727q0 111 52 204t148 148.5t217 55.5q115 0 194.5 -42t137.5 -120l-166 -131q-75 92 -172 92q-81 0 -132.5 -60t-51.5 -149
q0 -87 51.5 -146t132.5 -59q57 0 96.5 23.5t79.5 70.5l168 -118q-63 -85 -144 -131t-200 -46q-179 0 -295 116.5t-116 291.5z" />
    <glyph glyph-name="guillemotleft" unicode="&#xab;" horiz-adv-x="1292" 
d="M61 500v98l328 438l281 -137l-267 -350l267 -348l-281 -140zM592 541v16l360 479l279 -137l-266 -350l266 -348l-279 -140z" />
    <glyph glyph-name="uni00AD" unicode="&#xad;" horiz-adv-x="835" 
d="M82 469v342h672v-342h-672z" />
    <glyph glyph-name="registered" unicode="&#xae;" horiz-adv-x="1699" 
d="M109 717q0 149 58 286t157 238t237 161t291 60t290.5 -59.5t235.5 -159.5t155.5 -237.5t57.5 -288.5q0 -149 -58 -286.5t-157 -238t-237 -161t-291 -60.5t-290.5 59.5t-235.5 160t-155.5 238t-57.5 288.5zM195 713q0 -134 50 -255.5t136 -210.5t208 -141.5t259 -52.5
q138 0 260.5 53t209 143t137 213t50.5 259q0 179 -84.5 330t-235 240t-333.5 89q-138 0 -260.5 -53t-209 -142.5t-137 -212.5t-50.5 -259zM524 344v789h367q177 0 266 -89q68 -68 68 -184q0 -174 -162 -242l188 -274h-252l-163 240h-93v-240h-219zM743 754h144q57 0 88 25
t31 71t-32 70t-89 24h-142v-190z" />
    <glyph glyph-name="acute" unicode="&#xb4;" 
d="M268 1202l213 379l363 -117l-301 -262h-275z" />
    <glyph glyph-name="cedilla" unicode="&#xb8;" 
d="M223 -223l189 254h256l-136 -385z" />
    <glyph glyph-name="guillemotright" unicode="&#xbb;" horiz-adv-x="1292" 
d="M61 199l267 350l-267 348l281 139l358 -479v-16l-358 -480zM625 199l266 350l-266 348l278 139l328 -438v-98l-328 -439z" />
    <glyph glyph-name="circumflex" unicode="&#x2c6;" 
d="M92 1202l262 338h316l262 -338h-250l-172 125l-172 -125h-246z" />
    <glyph glyph-name="ring" unicode="&#x2da;" 
d="M240 1475q0 105 82 181.5t190 76.5t190 -77.5t82 -185.5q0 -104 -82 -182t-190 -78t-190 79t-82 186zM375 1470q0 -56 40 -95.5t97 -39.5t97 41t40 99q0 54 -40 93.5t-97 39.5t-97 -40.5t-40 -97.5z" />
    <glyph glyph-name="tilde" unicode="&#x2dc;" 
d="M80 1239q33 157 92 231t162 74q69 0 181 -40t138 -40q40 0 61.5 21.5t43.5 73.5l186 -52q-33 -157 -92 -231t-162 -74q-69 0 -181 40t-138 40q-40 0 -61.5 -21t-43.5 -73z" />
    <glyph glyph-name="afii10023" unicode="&#x401;" horiz-adv-x="1366" 
d="M127 0v1434h1153v-338h-760v-217h688v-314h-688v-227h770v-338h-1163zM326 1530v293h338v-293h-338zM774 1530v293h338v-293h-338z" />
    <glyph glyph-name="afii10051" unicode="&#x402;" horiz-adv-x="1761" 
d="M47 1085v349h1258v-349h-492v-235q157 92 346 92q111 0 200.5 -31.5t157.5 -95t105 -166.5t37 -239q0 -137 -37 -242.5t-104.5 -171.5t-158 -99.5t-200.5 -33.5q-46 0 -118.5 8t-112.5 18l43 344q25 -4 80 -4q194 0 194 172q0 80 -52.5 127t-148.5 47q-69 0 -132 -22
t-99 -55v-498h-397v1085h-369z" />
    <glyph glyph-name="afii10052" unicode="&#x403;" horiz-adv-x="1200" 
d="M127 0v1434h1032v-349h-635v-1085h-397zM424 1530l213 379l362 -117l-301 -262h-274z" />
    <glyph glyph-name="afii10053" unicode="&#x404;" horiz-adv-x="1495" 
d="M78 717q0 155 57.5 292.5t157 237t240.5 157.5t301 58q355 0 575 -268l-268 -229q-127 143 -312 143q-116 0 -202.5 -67t-124.5 -177h465v-280h-471q35 -117 122.5 -188.5t210.5 -71.5q180 0 318 155l289 -205q-109 -145 -256.5 -224t-362.5 -79q-203 0 -372 95.5
t-268 267t-99 383.5z" />
    <glyph glyph-name="afii10054" unicode="&#x405;" horiz-adv-x="1335" 
d="M18 213l222 264q215 -172 465 -172q79 0 121 26.5t42 76.5q0 46 -49.5 75t-191.5 62q-73 17 -126.5 31.5t-113.5 36.5t-102 46t-82 58t-64 73.5t-38.5 92.5t-14.5 116q0 203 150.5 331t404.5 128q353 0 590 -190l-199 -281q-201 141 -401 141q-70 0 -107 -26.5t-37 -69.5
q0 -50 49.5 -77.5t198.5 -61.5q132 -29 224 -63.5t165.5 -86.5t109.5 -126.5t36 -174.5q0 -217 -158 -342t-422 -125q-194 0 -368 60.5t-304 177.5z" />
    <glyph glyph-name="afii10055" unicode="&#x406;" horiz-adv-x="669" 
d="M135 0v1434h400v-1434h-400z" />
    <glyph glyph-name="afii10056" unicode="&#x407;" horiz-adv-x="669" 
d="M-57 1530v293h338v-293h-338zM135 0v1434h400v-1434h-400zM391 1530v293h338v-293h-338z" />
    <glyph glyph-name="afii10057" unicode="&#x408;" horiz-adv-x="1155" 
d="M8 217l256 242q56 -67 108 -100t115 -33q77 0 120.5 51t43.5 149v908h396v-910q0 -261 -142 -403q-146 -146 -393 -146q-327 0 -504 242z" />
    <glyph glyph-name="afii10058" unicode="&#x409;" horiz-adv-x="2265" 
d="M-29 12l27 305q36 -8 92 -8q28 0 48 5.5t44.5 26.5t41.5 59t34 106.5t27.5 165t17 239t6.5 324.5v199h1102v-451h217q130 0 238.5 -31t188.5 -90.5t124.5 -153t44.5 -212.5q0 -230 -155.5 -363t-419.5 -133h-635v1085h-334v-55q0 -185 -11.5 -333.5t-32.5 -257
t-53.5 -189.5t-70.5 -132t-88 -82.5t-101 -43.5t-114 -12q-69 0 -137.5 11t-100.5 21zM1411 334h207q99 0 154 44t55 128q0 76 -55.5 121t-151.5 45h-209v-338z" />
    <glyph glyph-name="afii10059" unicode="&#x40a;" horiz-adv-x="2285" 
d="M127 0v1434h397v-504h510v504h398v-504h237q169 0 297 -50t203.5 -155.5t75.5 -255.5q0 -221 -149.5 -345t-405.5 -124h-656v578h-510v-578h-397zM1432 334h227q90 0 139 39t49 112q0 67 -49.5 106.5t-136.5 39.5h-229v-297z" />
    <glyph glyph-name="afii10060" unicode="&#x40b;" horiz-adv-x="1761" 
d="M47 1085v349h1258v-349h-492v-235q157 92 346 92q223 0 361.5 -124.5t138.5 -344.5v-473h-397v307q0 134 -47 201t-150 67q-166 0 -252 -77v-498h-397v1085h-369z" />
    <glyph glyph-name="afii10061" unicode="&#x40c;" horiz-adv-x="1495" 
d="M127 0v1434h397v-582l494 582h471l-543 -617l561 -817h-477l-360 532l-146 -161v-371h-397zM602 1530l213 379l363 -117l-301 -262h-275z" />
    <glyph glyph-name="afii10062" unicode="&#x40e;" horiz-adv-x="1507" 
d="M0 1434h442l326 -674l307 674h432l-559 -1094q-99 -194 -210 -277t-275 -83q-182 0 -344 96l155 286q73 -49 162 -49q71 0 125 62zM408 1839l217 39q22 -60 55.5 -91.5t87.5 -31.5q55 0 89 31.5t56 91.5l217 -39q-23 -149 -118 -231t-244 -82q-148 0 -242.5 82
t-117.5 231z" />
    <glyph glyph-name="afii10145" unicode="&#x40f;" horiz-adv-x="1538" 
d="M127 0v1434h397v-1086h490v1086h397v-1434h-457v-287h-381v287h-446z" />
    <glyph glyph-name="afii10017" unicode="&#x410;" horiz-adv-x="1628" 
d="M12 0l611 1444h383l610 -1444h-426l-105 256h-553l-102 -256h-418zM649 565h322l-160 408z" />
    <glyph glyph-name="afii10018" unicode="&#x411;" horiz-adv-x="1433" 
d="M127 0v1434h1153v-338h-756v-166h277q126 0 230 -29t181.5 -85t120.5 -145t43 -202q0 -221 -149.5 -345t-405.5 -124h-694zM524 334h267q90 0 139 39t49 112q0 67 -49.5 106.5t-136.5 39.5h-269v-297z" />
    <glyph glyph-name="afii10019" unicode="&#x412;" horiz-adv-x="1464" 
d="M127 0v1434h735q262 0 391 -129q93 -93 93 -236q0 -223 -222 -319q139 -46 212 -129.5t73 -225.5q0 -185 -143.5 -290t-399.5 -105h-739zM514 319h307q91 0 141 35t50 101q0 60 -49 94.5t-146 34.5h-303v-265zM514 862h250q188 0 188 129q0 59 -46 91t-134 32h-258v-252z
" />
    <glyph glyph-name="afii10020" unicode="&#x413;" horiz-adv-x="1200" 
d="M127 0v1434h1032v-349h-635v-1085h-397z" />
    <glyph glyph-name="afii10021" unicode="&#x414;" horiz-adv-x="1576" 
d="M20 -287v635h127q77 209 111.5 437t34.5 612v37h1091v-1086h162l-45 -635h-336v287h-762l-26 -287h-357zM563 348h424v737h-311v-14q0 -222 -29 -390t-84 -333z" />
    <glyph glyph-name="afii10022" unicode="&#x415;" horiz-adv-x="1366" 
d="M127 0v1434h1153v-338h-760v-217h688v-314h-688v-227h770v-338h-1163z" />
    <glyph glyph-name="afii10024" unicode="&#x416;" horiz-adv-x="2244" 
d="M-12 0l528 829l-510 605h465l453 -582v582h397v-582l453 582h464l-509 -605l528 -829h-471l-328 541l-137 -160v-381h-397v381l-138 160l-327 -541h-471z" />
    <glyph glyph-name="afii10025" unicode="&#x417;" horiz-adv-x="1310" 
d="M23 213l206 264q170 -170 404 -170q107 0 163 39t56 103q0 126 -229 126h-150v295h145q103 0 153 35.5t50 95.5q0 56 -49 90.5t-131 34.5q-93 0 -197.5 -40t-171.5 -101l-196 234q247 243 600 243q237 0 386.5 -109t149.5 -278q0 -225 -215 -325q116 -39 184 -121.5
t68 -210.5q0 -195 -154.5 -320t-414.5 -125q-157 0 -282 32.5t-205.5 81t-169.5 126.5z" />
    <glyph glyph-name="afii10026" unicode="&#x418;" horiz-adv-x="1572" 
d="M127 0v1434h393v-807l555 807h371v-1434h-393v807l-555 -807h-371z" />
    <glyph glyph-name="afii10027" unicode="&#x419;" horiz-adv-x="1572" 
d="M127 0v1434h393v-807l555 807h371v-1434h-393v807l-555 -807h-371zM438 1839l217 39q45 -123 144 -123q55 0 89 31.5t56 91.5l217 -39q-23 -149 -118 -231t-244 -82q-148 0 -243 82t-118 231z" />
    <glyph glyph-name="afii10028" unicode="&#x41a;" horiz-adv-x="1495" 
d="M127 0v1434h397v-582l494 582h471l-543 -617l561 -817h-477l-360 532l-146 -161v-371h-397z" />
    <glyph glyph-name="afii10029" unicode="&#x41b;" horiz-adv-x="1538" 
d="M-29 12l27 305q36 -8 92 -8q28 0 48 5.5t44.5 26.5t41.5 59t34 106.5t27.5 165t17 239t6.5 324.5v199h1102v-1434h-397v1085h-334v-55q0 -185 -11.5 -333.5t-32.5 -257t-53.5 -189.5t-70.5 -132t-88 -82.5t-101 -43.5t-114 -12q-69 0 -137.5 11t-100.5 21z" />
    <glyph glyph-name="afii10030" unicode="&#x41c;" horiz-adv-x="1777" 
d="M127 0v1434h420l342 -555l342 555h420v-1434h-396v823l-366 -561h-8l-365 557v-819h-389z" />
    <glyph glyph-name="afii10031" unicode="&#x41d;" horiz-adv-x="1558" 
d="M127 0v1434h397v-537h510v537h398v-1434h-398v545h-510v-545h-397z" />
    <glyph glyph-name="afii10032" unicode="&#x41e;" horiz-adv-x="1701" 
d="M78 717q0 152 59.5 289.5t161.5 237.5t246 159t307 59t306.5 -58.5t245 -158t160 -237t58.5 -291.5q0 -152 -59.5 -290t-161.5 -238t-246 -159t-307 -59q-217 0 -394 99.5t-276.5 270t-99.5 376.5zM485 717q0 -159 104 -273t263 -114q161 0 263 112.5t102 274.5
q0 159 -104 273t-265 114q-159 0 -261 -112.5t-102 -274.5z" />
    <glyph glyph-name="afii10033" unicode="&#x41f;" horiz-adv-x="1538" 
d="M127 0v1434h1284v-1434h-397v1085h-490v-1085h-397z" />
    <glyph glyph-name="afii10034" unicode="&#x420;" horiz-adv-x="1378" 
d="M127 0v1434h614q274 0 435 -134.5t161 -373.5q0 -165 -80.5 -283t-218 -175.5t-317.5 -57.5h-197v-410h-397zM524 721h189q106 0 166.5 51t60.5 139q0 91 -60.5 140t-168.5 49h-187v-379z" />
    <glyph glyph-name="afii10035" unicode="&#x421;" horiz-adv-x="1495" 
d="M78 717q0 155 57.5 292.5t157 237t240.5 157.5t301 58q383 0 602 -303l-291 -225q-133 166 -316 166q-149 0 -245.5 -110.5t-96.5 -272.5q0 -163 96.5 -273t245.5 -110q105 0 178.5 43.5t145.5 130.5l299 -213q-73 -100 -154.5 -168t-205 -112t-275.5 -44
q-203 0 -372 95.5t-268 267t-99 383.5z" />
    <glyph glyph-name="afii10036" unicode="&#x422;" horiz-adv-x="1351" 
d="M47 1085v349h1258v-349h-431v-1085h-397v1085h-430z" />
    <glyph glyph-name="afii10037" unicode="&#x423;" horiz-adv-x="1507" 
d="M0 1434h442l326 -674l307 674h432l-559 -1094q-99 -194 -210 -277t-275 -83q-182 0 -344 96l155 286q73 -49 162 -49q71 0 125 62z" />
    <glyph glyph-name="afii10038" unicode="&#x424;" horiz-adv-x="1959" 
d="M53 741q0 137 49.5 252t141 198.5t229 130t307.5 46.5v127h400v-127q170 0 307.5 -46.5t229 -130t141 -198.5t49.5 -252q0 -139 -49 -256.5t-139.5 -203.5t-229 -134.5t-309.5 -48.5v-159h-400v159q-171 0 -309.5 48.5t-229 134.5t-139.5 203.5t-49 256.5zM461 735
q0 -135 87.5 -209.5t231.5 -74.5v565q-144 0 -231.5 -75t-87.5 -206zM1180 451q144 0 231.5 74.5t87.5 209.5q0 131 -87.5 206t-231.5 75v-565z" />
    <glyph glyph-name="afii10039" unicode="&#x425;" horiz-adv-x="1499" 
d="M23 0l491 729l-471 705h457l254 -404l256 404h446l-471 -701l492 -733h-457l-275 432l-276 -432h-446z" />
    <glyph glyph-name="afii10040" unicode="&#x426;" horiz-adv-x="1581" 
d="M127 0v1434h397v-1086h490v1086h397v-1086h162l-45 -635h-336v287h-1065z" />
    <glyph glyph-name="afii10041" unicode="&#x427;" horiz-adv-x="1456" 
d="M86 889v545h397v-433q0 -117 46 -171t151 -54q156 0 252 78v580h397v-1434h-397v502q-70 -41 -171.5 -66.5t-195.5 -25.5q-226 0 -352.5 126.5t-126.5 352.5z" />
    <glyph glyph-name="afii10042" unicode="&#x428;" horiz-adv-x="2260" 
d="M127 0v1434h397v-1086h408v1086h397v-1086h408v1086h397v-1434h-2007z" />
    <glyph glyph-name="afii10043" unicode="&#x429;" horiz-adv-x="2304" 
d="M127 0v1434h397v-1086h408v1086h397v-1086h408v1086h397v-1086h162l-45 -635h-336v287h-1788z" />
    <glyph glyph-name="afii10044" unicode="&#x42a;" horiz-adv-x="1617" 
d="M41 1085v349h723v-451h217q130 0 238.5 -31t188.5 -90.5t124.5 -153t44.5 -212.5q0 -230 -156 -363t-420 -133h-634v1085h-326zM764 334h207q99 0 154 44t55 128q0 76 -55.5 121t-151.5 45h-209v-338z" />
    <glyph glyph-name="afii10045" unicode="&#x42b;" horiz-adv-x="2029" 
d="M127 0v1434h397v-451h217q130 0 238.5 -31t188.5 -90.5t124.5 -153t44.5 -212.5q0 -230 -155.5 -363t-419.5 -133h-635zM524 334h207q99 0 154 44t55 128q0 76 -55.5 121t-151.5 45h-209v-338zM1505 0v1434h398v-1434h-398z" />
    <glyph glyph-name="afii10046" unicode="&#x42c;" horiz-adv-x="1378" 
d="M127 0v1434h397v-451h217q130 0 238.5 -31t188.5 -90.5t124.5 -153t44.5 -212.5q0 -230 -155.5 -363t-419.5 -133h-635zM524 334h207q99 0 154 44t55 128q0 76 -55.5 121t-151.5 45h-209v-338z" />
    <glyph glyph-name="afii10047" unicode="&#x42d;" horiz-adv-x="1495" 
d="M57 274l289 205q138 -155 318 -155q121 0 208.5 71.5t122.5 188.5h-469v280h465q-38 110 -124.5 177t-202.5 67q-185 0 -312 -143l-268 229q220 268 575 268q160 0 301 -58t240.5 -157.5t157 -237t57.5 -292.5q0 -212 -99 -383.5t-268 -267t-372 -95.5q-215 0 -362.5 79
t-256.5 224z" />
    <glyph glyph-name="afii10048" unicode="&#x42e;" horiz-adv-x="2211" 
d="M127 0v1434h397v-537h168q58 249 251.5 407t461.5 158q157 0 293.5 -58.5t231 -158.5t148.5 -237t54 -291q0 -204 -92 -374t-260.5 -271t-378.5 -101q-271 0 -464 160.5t-247 413.5h-166v-545h-397zM1079 717q0 -164 91 -276.5t235 -112.5t234 111t90 278
q0 164 -92 276.5t-236 112.5q-143 0 -232.5 -111t-89.5 -278z" />
    <glyph glyph-name="afii10049" unicode="&#x42f;" horiz-adv-x="1507" 
d="M61 0l342 500q-139 59 -216.5 170.5t-77.5 273.5q0 122 46.5 217.5t128 154t187.5 88.5t231 30h678v-1434h-397v434h-174l-289 -434h-459zM508 915q0 -79 56.5 -127.5t156.5 -48.5h262v357h-260q-101 0 -158 -47t-57 -134z" />
    <glyph glyph-name="afii10065" unicode="&#x430;" horiz-adv-x="1226" 
d="M49 322q0 168 117 258t317 90q149 0 267 -43v18q0 180 -222 180q-152 0 -305 -61l-80 274q211 86 449 86q287 0 422 -135q119 -116 119 -352v-637h-385v115q-127 -140 -326 -140q-164 0 -268.5 91.5t-104.5 255.5zM424 340q0 -56 38 -88.5t99 -32.5q86 0 139.5 50
t53.5 132v52q-68 28 -152 28t-131 -38t-47 -103z" />
    <glyph glyph-name="afii10066" unicode="&#x431;" horiz-adv-x="1343" 
d="M98 659q0 76 4.5 140.5t18 138t35.5 133.5t60 119t89 102t124 75.5t163 47.5l565 92l47 -301l-581 -106q-70 -13 -121.5 -42t-76.5 -64t-36.5 -63.5t-13.5 -53.5q12 20 40.5 45t74.5 53t116.5 46.5t149.5 18.5q105 0 201 -36t168.5 -100.5t115.5 -160t43 -206.5
q0 -153 -76 -282t-213 -205.5t-305 -76.5q-295 0 -443.5 174t-148.5 512zM479 532q0 -95 61.5 -162t153.5 -67q95 0 153 65.5t58 163.5q0 95 -61.5 162.5t-153.5 67.5q-95 0 -153 -66t-58 -164z" />
    <glyph glyph-name="afii10067" unicode="&#x432;" horiz-adv-x="1247" 
d="M104 0v1108h658q203 0 303 -100q72 -69 72 -181q0 -172 -172 -247q106 -35 158.5 -99.5t52.5 -175.5q0 -143 -111 -224t-309 -81h-652zM483 252h160q68 0 105.5 28t37.5 76q0 44 -38 73.5t-109 29.5h-156v-207zM483 668h131q66 0 103 26.5t37 71.5q0 42 -35 68t-98 26
h-138v-192z" />
    <glyph glyph-name="afii10068" unicode="&#x433;" horiz-adv-x="960" 
d="M104 0v1108h836v-313h-446v-795h-390z" />
    <glyph glyph-name="afii10069" unicode="&#x434;" horiz-adv-x="1337" 
d="M20 -225v538h103q51 148 74.5 309.5t23.5 432.5v53h987v-795h129l-37 -538h-331v225h-580l-20 -225h-349zM520 313h297v486h-225v-19q-5 -245 -72 -467z" />
    <glyph glyph-name="afii10070" unicode="&#x435;" horiz-adv-x="1239" 
d="M59 553q0 120 41.5 227t114.5 184.5t177.5 123t225.5 45.5q139 0 248 -48.5t176 -133t101.5 -192.5t34.5 -233q0 -53 -2 -80h-742q23 -89 85.5 -135.5t154.5 -46.5q130 0 246 113l215 -178q-177 -226 -482 -226q-173 0 -308 72t-210.5 204t-75.5 304zM428 645h385
q-11 93 -62 147t-130 54q-75 0 -126.5 -54.5t-66.5 -146.5z" />
    <glyph glyph-name="afii10072" unicode="&#x436;" horiz-adv-x="1871" 
d="M-10 0l389 653l-379 455h440l301 -412v412h389v-412l302 412h440l-381 -455l391 -653h-428l-225 379l-99 -119v-260h-389v260l-100 119l-223 -379h-428z" />
    <glyph glyph-name="afii10073" unicode="&#x437;" horiz-adv-x="1112" 
d="M10 125l154 242q63 -49 163 -80t169 -31q157 0 157 88q0 92 -153 92h-140v244h138q70 0 99.5 28t29.5 66q0 30 -35 53t-98 23q-74 0 -160 -32.5t-139 -78.5l-156 213q194 181 504 181q222 0 344.5 -84t122.5 -218q0 -175 -176 -251q206 -71 206 -258q0 -158 -134 -254.5
t-406 -96.5q-166 0 -271 33.5t-219 120.5z" />
    <glyph glyph-name="afii10074" unicode="&#x438;" horiz-adv-x="1312" 
d="M104 0v1108h377v-555l369 555h358v-1108h-377v555l-368 -555h-359z" />
    <glyph glyph-name="afii10075" unicode="&#x439;" horiz-adv-x="1312" 
d="M104 0v1108h377v-555l369 555h358v-1108h-377v555l-368 -555h-359zM328 1503l202 37q41 -119 136 -119q94 0 135 119l203 -37q-22 -146 -110.5 -225.5t-227.5 -79.5t-227.5 79.5t-110.5 225.5z" />
    <glyph glyph-name="afii10076" unicode="&#x43a;" horiz-adv-x="1234" 
d="M104 0v1108h390v-412l301 412h440l-379 -455l389 -653h-428l-211 354l-112 -135v-219h-390z" />
    <glyph glyph-name="afii10077" unicode="&#x43b;" horiz-adv-x="1306" 
d="M20 2l17 301q43 -6 63 -6q18 0 30.5 3t29 16t27.5 37t23 68t19.5 106t12 155.5t4.5 212.5v213h956v-1108h-389v799h-205v-29q0 -196 -21 -338.5t-56 -227.5t-90.5 -134.5t-113 -66.5t-134.5 -17q-79 0 -173 16z" />
    <glyph glyph-name="afii10078" unicode="&#x43c;" horiz-adv-x="1513" 
d="M104 0v1108h396l256 -383l258 383h395v-1108h-389v547l-270 -377l-263 369v-539h-383z" />
    <glyph glyph-name="afii10079" unicode="&#x43d;" horiz-adv-x="1306" 
d="M104 0v1108h390v-393h319v393h389v-1108h-389v401h-319v-401h-390z" />
    <glyph glyph-name="afii10080" unicode="&#x43e;" horiz-adv-x="1343" 
d="M59 553q0 117 46.5 223.5t127 185t195.5 125t246 46.5q173 0 313.5 -78t218.5 -211t78 -291q0 -117 -46.5 -223.5t-126.5 -185t-195 -125t-246 -46.5q-130 0 -244.5 46t-194.5 124t-126 185t-46 225zM438 553q0 -103 67.5 -176.5t168.5 -73.5q103 0 167 72t64 178
q0 103 -67 176.5t-168 73.5q-103 0 -167.5 -72.5t-64.5 -177.5z" />
    <glyph glyph-name="afii10081" unicode="&#x43f;" horiz-adv-x="1290" 
d="M104 0v1108h1082v-1108h-389v795h-303v-795h-390z" />
    <glyph glyph-name="afii10082" unicode="&#x440;" horiz-adv-x="1384" 
d="M104 -328v1436h390v-147q67 81 144 126.5t191 45.5q99 0 188 -40.5t157 -113.5t107.5 -183t39.5 -241t-39.5 -241.5t-107 -184t-156.5 -114t-187 -40.5q-115 0 -194.5 43t-142.5 117v-463h-390zM485 553q0 -109 65.5 -180.5t160.5 -71.5q97 0 162 71t65 185
q0 108 -65.5 179t-161.5 71q-95 0 -160.5 -71.5t-65.5 -182.5z" />
    <glyph glyph-name="afii10083" unicode="&#x441;" horiz-adv-x="1165" 
d="M59 553q0 156 74.5 287.5t211.5 210.5t308 79q318 0 473 -247l-260 -189q-78 109 -200 109q-103 0 -165.5 -71.5t-62.5 -178.5q0 -108 62 -180t159 -72q65 0 112 28.5t97 88.5l265 -191q-170 -254 -494 -254q-163 0 -297 78.5t-208.5 211.5t-74.5 290z" />
    <glyph glyph-name="afii10084" unicode="&#x442;" horiz-adv-x="1077" 
d="M20 795v313h1037v-313h-324v-795h-389v795h-324z" />
    <glyph glyph-name="afii10085" unicode="&#x443;" horiz-adv-x="1282" 
d="M23 1108h407l221 -668l209 668h400l-406 -1081q-73 -197 -166 -279t-256 -82q-184 0 -356 96l121 273q99 -60 170 -60q58 0 90 45z" />
    <glyph glyph-name="afii10086" unicode="&#x444;" horiz-adv-x="1839" 
d="M61 559q0 262 125 414.5t326 152.5q113 0 213 -79v387h389v-387q96 79 213 79q201 0 326 -153.5t125 -417.5q0 -265 -124.5 -419t-324.5 -154q-115 0 -215 69v-379h-389v379q-105 -69 -215 -69q-201 0 -325 154t-124 423zM444 553q0 -117 47.5 -187.5t139.5 -70.5
q53 0 94 20v476q-46 22 -94 22q-92 0 -139.5 -71t-47.5 -189zM1114 315q41 -20 94 -20q92 0 139.5 71t47.5 191q0 114 -47.5 185t-139.5 71q-48 0 -94 -22v-476z" />
    <glyph glyph-name="afii10087" unicode="&#x445;" horiz-adv-x="1206" 
d="M16 0l373 559l-366 549h419l164 -272l164 272h412l-365 -547l373 -561h-418l-172 285l-174 -285h-410z" />
    <glyph glyph-name="afii10088" unicode="&#x446;" horiz-adv-x="1314" 
d="M104 0v1108h390v-795h303v795h389v-795h129l-37 -538h-332v225h-842z" />
    <glyph glyph-name="afii10089" unicode="&#x447;" horiz-adv-x="1255" 
d="M94 678v430h391v-313q0 -86 27 -128t90 -42q104 0 160 43v440h389v-1108h-389v356q-48 -22 -129.5 -35.5t-145.5 -13.5q-174 0 -283.5 98.5t-109.5 272.5z" />
    <glyph glyph-name="afii10090" unicode="&#x448;" horiz-adv-x="1921" 
d="M104 0v1108h390v-795h272v795h389v-795h272v795h390v-1108h-1713z" />
    <glyph glyph-name="afii10091" unicode="&#x449;" horiz-adv-x="1945" 
d="M104 0v1108h390v-795h272v795h389v-795h272v795h390v-795h129l-37 -538h-332v225h-1473z" />
    <glyph glyph-name="afii10092" unicode="&#x44a;" horiz-adv-x="1353" 
d="M10 795v313h658v-348h188q204 0 330.5 -97.5t126.5 -279.5q0 -179 -119 -281t-322 -102h-593v795h-269zM668 274h120q71 0 110.5 31t39.5 90q0 54 -40 84.5t-110 30.5h-120v-236z" />
    <glyph glyph-name="afii10093" unicode="&#x44b;" horiz-adv-x="1757" 
d="M104 0v1108h390v-348h188q204 0 330.5 -97.5t126.5 -279.5q0 -179 -119 -281t-322 -102h-594zM494 274h120q71 0 110.5 31t39.5 90q0 54 -40 84.5t-110 30.5h-120v-236zM1264 0v1108h389v-1108h-389z" />
    <glyph glyph-name="afii10094" unicode="&#x44c;" horiz-adv-x="1179" 
d="M104 0v1108h390v-348h188q204 0 330.5 -97.5t126.5 -279.5q0 -179 -119 -281t-322 -102h-594zM494 274h120q71 0 110.5 31t39.5 90q0 54 -40 84.5t-110 30.5h-120v-236z" />
    <glyph glyph-name="afii10095" unicode="&#x44d;" horiz-adv-x="1142" 
d="M20 213l242 178q50 -56 101 -83t120 -27q77 0 136 43t86 116h-299v224h299q-27 72 -85.5 115.5t-132.5 43.5q-140 0 -225 -110l-231 190q156 227 458 227q171 0 308 -79t211.5 -210.5t74.5 -287.5q0 -157 -74.5 -290t-208 -211.5t-296.5 -78.5q-313 0 -484 240z" />
    <glyph glyph-name="afii10096" unicode="&#x44e;" horiz-adv-x="1851" 
d="M104 0v1108h390v-401h139q53 189 204 307.5t367 118.5q130 0 241 -46t186.5 -124.5t118 -184.5t42.5 -225q0 -118 -43 -223.5t-119 -184.5t-188 -125.5t-242 -46.5q-219 0 -370.5 121.5t-200.5 315.5h-135v-410h-390zM991 553q0 -106 57 -178t156 -72q101 0 155 70.5
t54 179.5q0 106 -57 178t-156 72q-101 0 -155 -70.5t-54 -179.5z" />
    <glyph glyph-name="afii10097" unicode="&#x44f;" horiz-adv-x="1267" 
d="M27 0l260 385q-205 97 -205 336q0 169 102 264q117 123 363 123h616v-1108h-391v319h-88l-213 -319h-444zM475 700q0 -53 37 -81.5t106 -28.5h154v225h-154q-68 0 -105.5 -29.5t-37.5 -85.5z" />
    <glyph glyph-name="afii10071" unicode="&#x451;" horiz-adv-x="1239" 
d="M59 553q0 120 41.5 227t114.5 184.5t177.5 123t225.5 45.5q139 0 248 -48.5t176 -133t101.5 -192.5t34.5 -233q0 -53 -2 -80h-742q23 -89 85.5 -135.5t154.5 -46.5q130 0 246 113l215 -178q-177 -226 -482 -226q-173 0 -308 72t-210.5 204t-75.5 304zM225 1202v293h338
v-293h-338zM428 645h385q-11 93 -62 147t-130 54q-75 0 -126.5 -54.5t-66.5 -146.5zM674 1202v293h338v-293h-338z" />
    <glyph glyph-name="afii10099" unicode="&#x452;" horiz-adv-x="1298" 
d="M-25 1108v262h129v125h390v-125h321v-262h-321v-254q138 176 331 176q177 0 277 -108.5t100 -298.5v-244q0 -190 -100.5 -299t-276.5 -109q-120 0 -219 29l21 313q10 -2 30 -2q71 0 113.5 49t42.5 138t-42.5 137.5t-113.5 48.5q-73 0 -118 -49t-45 -137v-498h-390v1108
h-129z" />
    <glyph glyph-name="afii10100" unicode="&#x453;" horiz-adv-x="960" 
d="M104 0v1108h836v-313h-446v-795h-390zM295 1202l213 379l362 -117l-301 -262h-274z" />
    <glyph glyph-name="afii10101" unicode="&#x454;" horiz-adv-x="1142" 
d="M59 553q0 156 74.5 287.5t211.5 210.5t308 79q303 0 459 -227l-231 -190q-85 110 -226 110q-75 0 -133 -43.5t-86 -115.5h301v-224h-301q27 -73 86 -116t137 -43q69 0 120.5 27t101.5 83l241 -178q-171 -240 -483 -240q-163 0 -297 78.5t-208.5 211.5t-74.5 290z" />
    <glyph glyph-name="afii10102" unicode="&#x455;" horiz-adv-x="1052" 
d="M20 139l146 236q192 -127 381 -127q98 0 98 63q0 30 -40 49.5t-138 45.5q-74 20 -126 38t-106 48t-86.5 65t-53.5 88t-21 119q0 173 123 269.5t321 96.5q122 0 242 -34t215 -95l-133 -245q-86 47 -174 74.5t-154 27.5q-44 0 -67 -15t-23 -42q0 -30 39.5 -49.5
t140.5 -49.5q74 -21 126 -40t106 -49t86.5 -65t53.5 -86.5t21 -115.5q0 -179 -122 -275t-330 -96q-297 0 -525 164z" />
    <glyph glyph-name="afii10103" unicode="&#x456;" horiz-adv-x="614" 
d="M104 1208v287h406v-287h-406zM113 0v1108h389v-1108h-389z" />
    <glyph glyph-name="afii10104" unicode="&#x457;" horiz-adv-x="614" 
d="M-86 1202v293h338v-293h-338zM113 0v1108h389v-1108h-389zM362 1202v293h338v-293h-338z" />
    <glyph glyph-name="afii10105" unicode="&#x458;" horiz-adv-x="618" 
d="M-53 -61q16 -2 51 -2q59 0 87 29.5t28 99.5v1042h389v-1059q0 -204 -99.5 -293.5t-296.5 -89.5q-42 0 -159 15v258zM104 1208v287h406v-287h-406z" />
    <glyph glyph-name="afii10106" unicode="&#x459;" horiz-adv-x="1888" 
d="M20 2l17 301q43 -6 63 -6q18 0 30.5 3t29 16t27.5 37t23 68t19.5 106t12 155.5t4.5 212.5v213h956v-348h189q204 0 330 -97.5t126 -279.5q0 -179 -119 -281t-321 -102h-594v799h-205v-29q0 -196 -21 -338.5t-56 -227.5t-90.5 -134.5t-113 -66.5t-134.5 -17q-79 0 -173 16
zM1202 274h121q71 0 110.5 31t39.5 90q0 54 -40 84.5t-110 30.5h-121v-236z" />
    <glyph glyph-name="afii10107" unicode="&#x45a;" horiz-adv-x="1888" 
d="M104 0v1108h390v-352h319v352h389v-352h178q137 0 240.5 -39.5t165 -125.5t61.5 -210q0 -181 -121 -281t-329 -100h-584v463h-319v-463h-390zM1202 279h121q150 0 150 110q0 105 -150 105h-121v-215z" />
    <glyph glyph-name="afii10108" unicode="&#x45b;" horiz-adv-x="1298" 
d="M-25 1108v262h129v125h390v-125h321v-262h-321v-254q138 176 331 176q177 0 277 -108.5t100 -298.5v-623h-389v498q0 89 -42.5 137.5t-113.5 48.5q-73 0 -118 -49t-45 -137v-498h-390v1108h-129z" />
    <glyph glyph-name="afii10109" unicode="&#x45c;" horiz-adv-x="1234" 
d="M104 0v1108h390v-412l301 412h440l-379 -455l389 -653h-428l-211 354l-112 -135v-219h-390zM432 1202l213 379l363 -117l-301 -262h-275z" />
    <glyph glyph-name="afii10110" unicode="&#x45e;" horiz-adv-x="1282" 
d="M23 1108h407l221 -668l209 668h400l-406 -1081q-73 -197 -166 -279t-256 -82q-184 0 -356 96l121 273q99 -60 170 -60q58 0 90 45zM313 1503l203 37q41 -119 135 -119t135 119l203 -37q-22 -146 -110.5 -225.5t-227.5 -79.5t-227.5 79.5t-110.5 225.5z" />
    <glyph glyph-name="afii10193" unicode="&#x45f;" horiz-adv-x="1290" 
d="M104 0v1108h390v-795h303v795h389v-1108h-359v-225h-368v225h-355z" />
    <glyph glyph-name="afii10050" unicode="&#x490;" horiz-adv-x="1200" 
d="M127 0v1434h651v286h336l45 -635h-635v-1085h-397z" />
    <glyph glyph-name="afii10098" unicode="&#x491;" horiz-adv-x="960" 
d="M104 0v1108h467v225h332l37 -538h-446v-795h-390z" />
    <glyph glyph-name="uni2000" unicode="&#x2000;" horiz-adv-x="954" 
 />
    <glyph glyph-name="uni2001" unicode="&#x2001;" horiz-adv-x="1909" 
 />
    <glyph glyph-name="uni2002" unicode="&#x2002;" horiz-adv-x="954" 
 />
    <glyph glyph-name="uni2003" unicode="&#x2003;" horiz-adv-x="1909" 
 />
    <glyph glyph-name="uni2004" unicode="&#x2004;" horiz-adv-x="636" 
 />
    <glyph glyph-name="uni2005" unicode="&#x2005;" horiz-adv-x="477" 
 />
    <glyph glyph-name="uni2006" unicode="&#x2006;" horiz-adv-x="318" 
 />
    <glyph glyph-name="uni2007" unicode="&#x2007;" horiz-adv-x="318" 
 />
    <glyph glyph-name="uni2008" unicode="&#x2008;" horiz-adv-x="238" 
 />
    <glyph glyph-name="uni2009" unicode="&#x2009;" horiz-adv-x="381" 
 />
    <glyph glyph-name="uni200A" unicode="&#x200a;" horiz-adv-x="106" 
 />
    <glyph glyph-name="uni2010" unicode="&#x2010;" horiz-adv-x="835" 
d="M82 469v342h672v-342h-672z" />
    <glyph glyph-name="uni2011" unicode="&#x2011;" horiz-adv-x="835" 
d="M82 469v342h672v-342h-672z" />
    <glyph glyph-name="figuredash" unicode="&#x2012;" horiz-adv-x="835" 
d="M82 469v342h672v-342h-672z" />
    <glyph glyph-name="endash" unicode="&#x2013;" horiz-adv-x="1081" 
d="M82 473v334h917v-334h-917z" />
    <glyph glyph-name="emdash" unicode="&#x2014;" horiz-adv-x="1839" 
d="M82 473v334h1675v-334h-1675z" />
    <glyph glyph-name="quoteleft" unicode="&#x2018;" horiz-adv-x="581" 
d="M82 702v326q0 217 108 313.5t312 102.5l33 -150q-99 -12 -152 -58t-53 -122v-12h155v-400h-403z" />
    <glyph glyph-name="quoteright" unicode="&#x2019;" horiz-adv-x="581" 
d="M47 842q98 11 151.5 57.5t53.5 122.5v12h-156v400h404v-326q0 -217 -108 -313.5t-312 -102.5z" />
    <glyph glyph-name="quotesinglbase" unicode="&#x201a;" horiz-adv-x="581" 
d="M41 -193q100 12 152.5 59.5t52.5 125.5v8h-158v399h406v-325q0 -217 -109 -313.5t-313 -102.5z" />
    <glyph glyph-name="quotedblleft" unicode="&#x201c;" horiz-adv-x="1120" 
d="M82 702v326q0 214 107 312t309 104l30 -150q-198 -24 -198 -178v-14h151v-400h-399zM625 702v326q0 214 107 312t308 104l33 -150q-201 -24 -201 -182v-10h152v-400h-399z" />
    <glyph glyph-name="quotedblright" unicode="&#x201d;" horiz-adv-x="1120" 
d="M47 842q99 10 150 57t51 125v10h-152v400h400v-326q0 -215 -107 -312.5t-309 -103.5zM592 842q99 10 150 57t51 125v10h-154v400h399v-326q0 -215 -106 -312.5t-307 -103.5z" />
    <glyph glyph-name="quotedblbase" unicode="&#x201e;" horiz-adv-x="1118" 
d="M41 -193q199 24 199 179v14h-152v399h399v-325q0 -215 -106.5 -312.5t-308.5 -103.5zM586 -193q198 24 198 179v14h-151v399h399v-325q0 -215 -107 -312.5t-309 -103.5z" />
    <glyph glyph-name="ellipsis" unicode="&#x2026;" horiz-adv-x="1720" 
d="M88 0v393h397v-393h-397zM662 0v393h397v-393h-397zM1235 0v393h397v-393h-397z" />
    <glyph glyph-name="uni202F" unicode="&#x202f;" horiz-adv-x="381" 
 />
    <glyph glyph-name="guilsinglleft" unicode="&#x2039;" horiz-adv-x="731" 
d="M61 500v98l328 438l281 -137l-267 -350l267 -348l-281 -140z" />
    <glyph glyph-name="guilsinglright" unicode="&#x203a;" horiz-adv-x="731" 
d="M61 199l267 350l-267 348l281 139l328 -438v-98l-328 -439z" />
    <glyph glyph-name="uni205F" unicode="&#x205f;" horiz-adv-x="477" 
 />
    <glyph glyph-name="Euro" unicode="&#x20ac;" horiz-adv-x="1396" 
d="M76 457v213h139q-2 14 -2 47q0 37 2 55h-139v213h172q27 102 81 188t130.5 151t180.5 101.5t224 36.5q311 0 492 -231l-252 -236q-99 127 -238 127q-76 0 -133 -37.5t-90 -105.5h320v-207h-365q-2 -16 -2 -55q0 -31 2 -47h365v-207h-324q73 -152 235 -152q74 0 130.5 34
t111.5 101l246 -231q-188 -244 -500 -244q-243 0 -404.5 132t-215.5 354h-166z" />
    <glyph glyph-name="trademark" unicode="&#x2122;" horiz-adv-x="1423" 
d="M33 1280v154h553v-154h-189v-477h-176v477h-188zM684 803v631h186l150 -244l151 244h185v-631h-174v368l-160 -249h-6l-160 249v-368h-172z" />
    <glyph glyph-name="uniE000" unicode="&#xe000;" horiz-adv-x="1105" 
d="M0 0v1106h1106v-1106h-1106z" />
    </font>
</defs>
</svg>
